<?xml version="1.0" encoding="utf-8"?>
<!-- Generator: Adobe Illustrator 24.0.1, SVG Export Plug-In . SVG Version: 6.00 Build 0)  -->
<svg version="1.1" xmlns="http://www.w3.org/2000/svg" xmlns:xlink="http://www.w3.org/1999/xlink" x="0px" y="0px"
	 viewBox="0 0 418.6 163.2" style="enable-background:new 0 0 418.6 163.2;" xml:space="preserve">
<style type="text/css">
	.st0{display:none;}
	.st1{display:inline;}
	.st2{fill:url(#SVGID_1_);}
	.st3{fill:url(#SVGID_2_);}
	.st4{fill:url(#SVGID_3_);}
	.st5{fill:url(#SVGID_4_);}
	.st6{fill:url(#SVGID_5_);}
	.st7{fill:url(#SVGID_6_);}
	.st8{fill:url(#SVGID_7_);}
	.st9{fill:url(#SVGID_8_);}
	.st10{fill:url(#SVGID_9_);}
	.st11{fill:url(#SVGID_10_);}
	.st12{fill:url(#SVGID_11_);}
	.st13{fill:url(#SVGID_12_);}
	.st14{fill:url(#SVGID_13_);}
	.st15{fill:url(#SVGID_14_);}
	.st16{fill:url(#SVGID_15_);}
	.st17{fill:url(#SVGID_16_);}
	.st18{fill:url(#SVGID_17_);}
	.st19{fill:url(#SVGID_18_);}
	.st20{fill:url(#SVGID_19_);}
	.st21{fill:url(#SVGID_20_);}
	.st22{fill:url(#SVGID_21_);}
	.st23{fill:url(#SVGID_22_);}
	.st24{fill:url(#SVGID_23_);}
	.st25{fill:url(#SVGID_24_);}
	.st26{fill:url(#SVGID_25_);}
	.st27{fill:url(#SVGID_26_);}
	.st28{fill:url(#SVGID_27_);}
	.st29{fill:url(#SVGID_28_);}
	.st30{fill:url(#SVGID_29_);}
	.st31{fill:url(#SVGID_30_);}
	.st32{fill:#FFFFFF;}
</style>
<g id="Layer_1">
</g>
<g id="Soleado" class="st0">
	<g class="st1">
		<radialGradient id="SVGID_1_" cx="123.5522" cy="15.6985" r="65.633" gradientUnits="userSpaceOnUse">
			<stop  offset="0.1899" style="stop-color:#F3C66F"/>
			<stop  offset="0.5056" style="stop-color:#F3C66F;stop-opacity:0.7"/>
			<stop  offset="0.9022" style="stop-color:#F3C66F;stop-opacity:0.2333"/>
			<stop  offset="1" style="stop-color:#F3C66F;stop-opacity:0"/>
		</radialGradient>
		<path class="st2" d="M38.8,37.4l175-33.3L36.2-6C36.2-6,28.1,22.4,38.8,37.4z"/>
		<radialGradient id="SVGID_2_" cx="128.3051" cy="48.5939" r="68.1544" gradientUnits="userSpaceOnUse">
			<stop  offset="0.1899" style="stop-color:#F3C66F"/>
			<stop  offset="0.5056" style="stop-color:#F3C66F;stop-opacity:0.7"/>
			<stop  offset="0.9022" style="stop-color:#F3C66F;stop-opacity:0.2333"/>
			<stop  offset="1" style="stop-color:#F3C66F;stop-opacity:0"/>
		</radialGradient>
		<path class="st3" d="M59.5,93.1l154.3-89L42.8,53C42.8,53,44.5,82.4,59.5,93.1z"/>
		<radialGradient id="SVGID_3_" cx="141.1032" cy="71.4922" r="70.0998" gradientUnits="userSpaceOnUse">
			<stop  offset="0.1899" style="stop-color:#F3C66F"/>
			<stop  offset="0.5056" style="stop-color:#F3C66F;stop-opacity:0.7"/>
			<stop  offset="0.9022" style="stop-color:#F3C66F;stop-opacity:0.2333"/>
			<stop  offset="1" style="stop-color:#F3C66F;stop-opacity:0"/>
		</radialGradient>
		<path class="st4" d="M97.4,138.9L213.8,4.1L68.4,106.5C68.4,106.5,79.7,133.8,97.4,138.9z"/>
		<radialGradient id="SVGID_4_" cx="161.9932" cy="86.9036" r="69.0729" gradientUnits="userSpaceOnUse">
			<stop  offset="0.1899" style="stop-color:#F3C66F"/>
			<stop  offset="0.5056" style="stop-color:#F3C66F;stop-opacity:0.7"/>
			<stop  offset="0.9022" style="stop-color:#F3C66F;stop-opacity:0.2333"/>
			<stop  offset="1" style="stop-color:#F3C66F;stop-opacity:0"/>
		</radialGradient>
		<path class="st5" d="M148.2,169.7L213.8,4.1L110.2,148.6C110.2,148.6,129.8,170.7,148.2,169.7z"/>
		<radialGradient id="SVGID_5_" cx="188.6497" cy="94.0238" r="66.033" gradientUnits="userSpaceOnUse">
			<stop  offset="0.1899" style="stop-color:#F3C66F"/>
			<stop  offset="0.5056" style="stop-color:#F3C66F;stop-opacity:0.7"/>
			<stop  offset="0.9022" style="stop-color:#F3C66F;stop-opacity:0.2333"/>
			<stop  offset="1" style="stop-color:#F3C66F;stop-opacity:0"/>
		</radialGradient>
		<path class="st6" d="M206.3,182l7.5-178l-50.3,170.6C163.5,174.7,189.3,189,206.3,182z"/>
		<radialGradient id="SVGID_6_" cx="239.546" cy="93.4294" r="65.7436" gradientUnits="userSpaceOnUse">
			<stop  offset="0.1899" style="stop-color:#F3C66F"/>
			<stop  offset="0.5056" style="stop-color:#F3C66F;stop-opacity:0.7"/>
			<stop  offset="0.9022" style="stop-color:#F3C66F;stop-opacity:0.2333"/>
			<stop  offset="1" style="stop-color:#F3C66F;stop-opacity:0"/>
		</radialGradient>
		<path class="st7" d="M265.3,174.6L213.8,4.1l8.6,177.6C222.4,181.7,251.5,186.8,265.3,174.6z"/>
		<radialGradient id="SVGID_7_" cx="266.1577" cy="86.546" r="69.0665" gradientUnits="userSpaceOnUse">
			<stop  offset="0.1899" style="stop-color:#F3C66F"/>
			<stop  offset="0.5056" style="stop-color:#F3C66F;stop-opacity:0.7"/>
			<stop  offset="0.9022" style="stop-color:#F3C66F;stop-opacity:0.2333"/>
			<stop  offset="1" style="stop-color:#F3C66F;stop-opacity:0"/>
		</radialGradient>
		<path class="st8" d="M318.5,148.2L213.8,4.1L280.4,169C280.4,169,309.5,164.2,318.5,148.2z"/>
		<radialGradient id="SVGID_8_" cx="286.9415" cy="71.0085" r="70.0992" gradientUnits="userSpaceOnUse">
			<stop  offset="0.1899" style="stop-color:#F3C66F"/>
			<stop  offset="0.5056" style="stop-color:#F3C66F;stop-opacity:0.7"/>
			<stop  offset="0.9022" style="stop-color:#F3C66F;stop-opacity:0.2333"/>
			<stop  offset="1" style="stop-color:#F3C66F;stop-opacity:0"/>
		</radialGradient>
		<path class="st9" d="M360.1,105.7L213.8,4.1l117.1,133.8C330.9,137.9,356.8,123.9,360.1,105.7z"/>
		<radialGradient id="SVGID_9_" cx="299.7288" cy="48.0224" r="68.2416" gradientUnits="userSpaceOnUse">
			<stop  offset="0.1899" style="stop-color:#F3C66F"/>
			<stop  offset="0.5056" style="stop-color:#F3C66F;stop-opacity:0.7"/>
			<stop  offset="0.9022" style="stop-color:#F3C66F;stop-opacity:0.2333"/>
			<stop  offset="1" style="stop-color:#F3C66F;stop-opacity:0"/>
		</radialGradient>
		<path class="st10" d="M385.4,51.9L213.8,4.1L368.4,92C368.4,92,388.3,70.1,385.4,51.9z"/>
		<radialGradient id="SVGID_10_" cx="304.308" cy="14.515" r="65.8104" gradientUnits="userSpaceOnUse">
			<stop  offset="0.1899" style="stop-color:#F3C66F"/>
			<stop  offset="0.5056" style="stop-color:#F3C66F;stop-opacity:0.7"/>
			<stop  offset="0.9022" style="stop-color:#F3C66F;stop-opacity:0.2333"/>
			<stop  offset="1" style="stop-color:#F3C66F;stop-opacity:0"/>
		</radialGradient>
		<path class="st11" d="M391.6-7.2L213.8,4.1l174.9,32.1C388.7,36.2,400.3,9.1,391.6-7.2z"/>
	</g>
</g>
<g id="alerta-naranja" class="st0">
	<g class="st1">
		<radialGradient id="SVGID_11_" cx="123.5522" cy="15.6985" r="65.633" gradientUnits="userSpaceOnUse">
			<stop  offset="0.1899" style="stop-color:#BB3E03"/>
			<stop  offset="0.5" style="stop-color:#BB3E03;stop-opacity:0.7"/>
			<stop  offset="0.9022" style="stop-color:#BB3E03;stop-opacity:0.23"/>
			<stop  offset="1" style="stop-color:#BB3E03;stop-opacity:0"/>
		</radialGradient>
		<path class="st12" d="M38.8,37.4l175-33.3L36.2-6C36.2-6,28.1,22.4,38.8,37.4z"/>
		<radialGradient id="SVGID_12_" cx="128.3051" cy="48.5939" r="68.1544" gradientUnits="userSpaceOnUse">
			<stop  offset="0.1899" style="stop-color:#BB3E03"/>
			<stop  offset="0.5" style="stop-color:#BB3E03;stop-opacity:0.7"/>
			<stop  offset="0.9022" style="stop-color:#BB3E03;stop-opacity:0.23"/>
			<stop  offset="1" style="stop-color:#BB3E03;stop-opacity:0"/>
		</radialGradient>
		<path class="st13" d="M59.5,93.1l154.3-89L42.8,53C42.8,53,44.5,82.4,59.5,93.1z"/>
		<radialGradient id="SVGID_13_" cx="141.1032" cy="71.4922" r="70.0998" gradientUnits="userSpaceOnUse">
			<stop  offset="0.1899" style="stop-color:#BB3E03"/>
			<stop  offset="0.5" style="stop-color:#BB3E03;stop-opacity:0.7"/>
			<stop  offset="0.9022" style="stop-color:#BB3E03;stop-opacity:0.23"/>
			<stop  offset="1" style="stop-color:#BB3E03;stop-opacity:0"/>
		</radialGradient>
		<path class="st14" d="M97.4,138.9L213.8,4.1L68.4,106.5C68.4,106.5,79.7,133.8,97.4,138.9z"/>
		<radialGradient id="SVGID_14_" cx="161.9932" cy="86.9036" r="69.0729" gradientUnits="userSpaceOnUse">
			<stop  offset="0.1899" style="stop-color:#BB3E03"/>
			<stop  offset="0.5" style="stop-color:#BB3E03;stop-opacity:0.7"/>
			<stop  offset="0.9022" style="stop-color:#BB3E03;stop-opacity:0.23"/>
			<stop  offset="1" style="stop-color:#BB3E03;stop-opacity:0"/>
		</radialGradient>
		<path class="st15" d="M148.2,169.7L213.8,4.1L110.2,148.6C110.2,148.6,129.8,170.7,148.2,169.7z"/>
		<radialGradient id="SVGID_15_" cx="188.6497" cy="94.0238" r="66.033" gradientUnits="userSpaceOnUse">
			<stop  offset="0.1899" style="stop-color:#BB3E03"/>
			<stop  offset="0.5" style="stop-color:#BB3E03;stop-opacity:0.7"/>
			<stop  offset="0.9022" style="stop-color:#BB3E03;stop-opacity:0.23"/>
			<stop  offset="1" style="stop-color:#BB3E03;stop-opacity:0"/>
		</radialGradient>
		<path class="st16" d="M206.3,182l7.5-178l-50.3,170.6C163.5,174.7,189.3,189,206.3,182z"/>
		<radialGradient id="SVGID_16_" cx="239.546" cy="93.4294" r="65.7436" gradientUnits="userSpaceOnUse">
			<stop  offset="0.1899" style="stop-color:#BB3E03"/>
			<stop  offset="0.5" style="stop-color:#BB3E03;stop-opacity:0.7"/>
			<stop  offset="0.9022" style="stop-color:#BB3E03;stop-opacity:0.23"/>
			<stop  offset="1" style="stop-color:#BB3E03;stop-opacity:0"/>
		</radialGradient>
		<path class="st17" d="M265.3,174.6L213.8,4.1l8.6,177.6C222.4,181.7,251.5,186.8,265.3,174.6z"/>
		<radialGradient id="SVGID_17_" cx="266.1577" cy="86.546" r="69.0665" gradientUnits="userSpaceOnUse">
			<stop  offset="0.1899" style="stop-color:#BB3E03"/>
			<stop  offset="0.5" style="stop-color:#BB3E03;stop-opacity:0.7"/>
			<stop  offset="0.9022" style="stop-color:#BB3E03;stop-opacity:0.23"/>
			<stop  offset="1" style="stop-color:#BB3E03;stop-opacity:0"/>
		</radialGradient>
		<path class="st18" d="M318.5,148.2L213.8,4.1L280.4,169C280.4,169,309.5,164.2,318.5,148.2z"/>
		<radialGradient id="SVGID_18_" cx="286.9415" cy="71.0085" r="70.0992" gradientUnits="userSpaceOnUse">
			<stop  offset="0.1899" style="stop-color:#BB3E03"/>
			<stop  offset="0.5" style="stop-color:#BB3E03;stop-opacity:0.7"/>
			<stop  offset="0.9022" style="stop-color:#BB3E03;stop-opacity:0.23"/>
			<stop  offset="1" style="stop-color:#BB3E03;stop-opacity:0"/>
		</radialGradient>
		<path class="st19" d="M360.1,105.7L213.8,4.1l117.1,133.8C330.9,137.9,356.8,123.9,360.1,105.7z"/>
		<radialGradient id="SVGID_19_" cx="299.7288" cy="48.0224" r="68.2416" gradientUnits="userSpaceOnUse">
			<stop  offset="0.1899" style="stop-color:#BB3E03"/>
			<stop  offset="0.5" style="stop-color:#BB3E03;stop-opacity:0.7"/>
			<stop  offset="0.9022" style="stop-color:#BB3E03;stop-opacity:0.23"/>
			<stop  offset="1" style="stop-color:#BB3E03;stop-opacity:0"/>
		</radialGradient>
		<path class="st20" d="M385.4,51.9L213.8,4.1L368.4,92C368.4,92,388.3,70.1,385.4,51.9z"/>
		<radialGradient id="SVGID_20_" cx="304.308" cy="14.515" r="65.8104" gradientUnits="userSpaceOnUse">
			<stop  offset="0.1899" style="stop-color:#BB3E03"/>
			<stop  offset="0.5" style="stop-color:#BB3E03;stop-opacity:0.7"/>
			<stop  offset="0.9022" style="stop-color:#BB3E03;stop-opacity:0.23"/>
			<stop  offset="1" style="stop-color:#BB3E03;stop-opacity:0"/>
		</radialGradient>
		<path class="st21" d="M391.6-7.2L213.8,4.1l174.9,32.1C388.7,36.2,400.3,9.1,391.6-7.2z"/>
	</g>
</g>
<g id="alerta-roja">
	<g>
		<radialGradient id="SVGID_21_" cx="123.5522" cy="15.6985" r="65.633" gradientUnits="userSpaceOnUse">
			<stop  offset="0.1899" style="stop-color:#AE2012"/>
			<stop  offset="0.5" style="stop-color:#AE2012;stop-opacity:0.7"/>
			<stop  offset="0.9022" style="stop-color:#AE2012;stop-opacity:0.23"/>
			<stop  offset="1" style="stop-color:#BB3E03;stop-opacity:0"/>
		</radialGradient>
		<path class="st22" d="M38.8,37.4l175-33.3L36.2-6C36.2-6,28.1,22.4,38.8,37.4z"/>
		<radialGradient id="SVGID_22_" cx="128.3051" cy="48.5939" r="68.1544" gradientUnits="userSpaceOnUse">
			<stop  offset="0.1899" style="stop-color:#AE2012"/>
			<stop  offset="0.5" style="stop-color:#AE2012;stop-opacity:0.7"/>
			<stop  offset="0.9022" style="stop-color:#AE2012;stop-opacity:0.23"/>
			<stop  offset="1" style="stop-color:#BB3E03;stop-opacity:0"/>
		</radialGradient>
		<path class="st23" d="M59.5,93.1l154.3-89L42.8,53C42.8,53,44.5,82.4,59.5,93.1z"/>
		<radialGradient id="SVGID_23_" cx="141.1032" cy="71.4922" r="70.0998" gradientUnits="userSpaceOnUse">
			<stop  offset="0.1899" style="stop-color:#AE2012"/>
			<stop  offset="0.5" style="stop-color:#AE2012;stop-opacity:0.7"/>
			<stop  offset="0.9022" style="stop-color:#AE2012;stop-opacity:0.23"/>
			<stop  offset="1" style="stop-color:#BB3E03;stop-opacity:0"/>
		</radialGradient>
		<path class="st24" d="M97.4,138.9L213.8,4.1L68.4,106.5C68.4,106.5,79.7,133.8,97.4,138.9z"/>
		<radialGradient id="SVGID_24_" cx="161.9932" cy="86.9036" r="69.0729" gradientUnits="userSpaceOnUse">
			<stop  offset="0.1899" style="stop-color:#AE2012"/>
			<stop  offset="0.5" style="stop-color:#AE2012;stop-opacity:0.7"/>
			<stop  offset="0.9022" style="stop-color:#AE2012;stop-opacity:0.23"/>
			<stop  offset="1" style="stop-color:#BB3E03;stop-opacity:0"/>
		</radialGradient>
		<path class="st25" d="M148.2,169.7L213.8,4.1L110.2,148.6C110.2,148.6,129.8,170.7,148.2,169.7z"/>
		<radialGradient id="SVGID_25_" cx="188.6497" cy="94.0238" r="66.033" gradientUnits="userSpaceOnUse">
			<stop  offset="0.1899" style="stop-color:#AE2012"/>
			<stop  offset="0.5" style="stop-color:#AE2012;stop-opacity:0.7"/>
			<stop  offset="0.9022" style="stop-color:#AE2012;stop-opacity:0.23"/>
			<stop  offset="1" style="stop-color:#BB3E03;stop-opacity:0"/>
		</radialGradient>
		<path class="st26" d="M206.3,182l7.5-178l-50.3,170.6C163.5,174.7,189.3,189,206.3,182z"/>
		<radialGradient id="SVGID_26_" cx="239.546" cy="93.4294" r="65.7436" gradientUnits="userSpaceOnUse">
			<stop  offset="0.1899" style="stop-color:#AE2012"/>
			<stop  offset="0.5" style="stop-color:#AE2012;stop-opacity:0.7"/>
			<stop  offset="0.9022" style="stop-color:#AE2012;stop-opacity:0.23"/>
			<stop  offset="1" style="stop-color:#BB3E03;stop-opacity:0"/>
		</radialGradient>
		<path class="st27" d="M265.3,174.6L213.8,4.1l8.6,177.6C222.4,181.7,251.5,186.8,265.3,174.6z"/>
		<radialGradient id="SVGID_27_" cx="266.1577" cy="86.546" r="69.0665" gradientUnits="userSpaceOnUse">
			<stop  offset="0.1899" style="stop-color:#AE2012"/>
			<stop  offset="0.5" style="stop-color:#AE2012;stop-opacity:0.7"/>
			<stop  offset="0.9022" style="stop-color:#AE2012;stop-opacity:0.23"/>
			<stop  offset="1" style="stop-color:#BB3E03;stop-opacity:0"/>
		</radialGradient>
		<path class="st28" d="M318.5,148.2L213.8,4.1L280.4,169C280.4,169,309.5,164.2,318.5,148.2z"/>
		<radialGradient id="SVGID_28_" cx="286.9415" cy="71.0085" r="70.0992" gradientUnits="userSpaceOnUse">
			<stop  offset="0.1899" style="stop-color:#AE2012"/>
			<stop  offset="0.5" style="stop-color:#AE2012;stop-opacity:0.7"/>
			<stop  offset="0.9022" style="stop-color:#AE2012;stop-opacity:0.23"/>
			<stop  offset="1" style="stop-color:#BB3E03;stop-opacity:0"/>
		</radialGradient>
		<path class="st29" d="M360.1,105.7L213.8,4.1l117.1,133.8C330.9,137.9,356.8,123.9,360.1,105.7z"/>
		<radialGradient id="SVGID_29_" cx="299.7288" cy="48.0224" r="68.2416" gradientUnits="userSpaceOnUse">
			<stop  offset="0.1899" style="stop-color:#AE2012"/>
			<stop  offset="0.5" style="stop-color:#AE2012;stop-opacity:0.7"/>
			<stop  offset="0.9022" style="stop-color:#AE2012;stop-opacity:0.23"/>
			<stop  offset="1" style="stop-color:#BB3E03;stop-opacity:0"/>
		</radialGradient>
		<path class="st30" d="M385.4,51.9L213.8,4.1L368.4,92C368.4,92,388.3,70.1,385.4,51.9z"/>
		<radialGradient id="SVGID_30_" cx="304.308" cy="14.515" r="65.8104" gradientUnits="userSpaceOnUse">
			<stop  offset="0.1899" style="stop-color:#AE2012"/>
			<stop  offset="0.5" style="stop-color:#AE2012;stop-opacity:0.7"/>
			<stop  offset="0.9022" style="stop-color:#AE2012;stop-opacity:0.23"/>
			<stop  offset="1" style="stop-color:#BB3E03;stop-opacity:0"/>
		</radialGradient>
		<path class="st31" d="M391.6-7.2L213.8,4.1l174.9,32.1C388.7,36.2,400.3,9.1,391.6-7.2z"/>
	</g>
</g>
<g id="Nubes" class="st0">
	<g class="st1">
		<g>
			
				<image style="overflow:visible;" width="832" height="660" xlink:href="51051361.png"  transform="matrix(0.24 0 0 0.24 116.16 -16.9047)">
			</image>
		</g>
		<path class="st32" d="M152.4,66.4c0-8.7,7-15.7,15.7-15.7c0.8,0,1.6,0.1,2.3,0.2c0-0.1,0-0.1,0-0.2c0-8.7,7-15.7,15.7-15.7
			c0.1,0,0.2,0,0.2,0c2.8-9.1,11.3-15.8,21.3-15.8c8.5,0,15.9,4.8,19.6,11.8c2.9-3.2,7.1-5.3,11.7-5.3c7.4,0,13.6,5.2,15.3,12.1
			c0.1,0,0.3,0,0.4,0c8.7,0,15.7,7,15.7,15.7c0,3-0.8,5.7-2.2,8.1c6.8,3,11.5,8.9,11.5,15.8c0,9.8-9.6,17.8-21.5,17.8
			c-5.5,0-10.5-1.7-14.3-4.5c-2.5,3.4-6.5,5.7-11,5.7c-3.4,0-6.4-1.2-8.8-3.3c-3.9,3.9-9.9,6.3-16.5,6.3c-1.4,0-2.7-0.1-4-0.3
			c-2,3.7-5.9,6.3-10.4,6.3c-6.5,0-11.7-5.2-11.7-11.7c0-0.3,0-0.6,0-0.8c-1.2,0.3-2.4,0.5-3.6,0.5c-7.2,0-13-5.1-13.2-11.5
			C157.7,80.2,152.4,73.9,152.4,66.4z"/>
	</g>
	<g class="st1">
		<g>
			
				<image style="overflow:visible;" width="1079" height="781" xlink:href="51051363.png"  transform="matrix(0.24 0 0 0.24 181.68 -20.5047)">
			</image>
		</g>
		<path class="st32" d="M404.6,68.4c0,19.3-15.6,34.9-34.9,34.9c-3.9,0-7.7-0.6-11.2-1.8c-6.4,7.2-15.7,11.7-26.1,11.7
			c-9.5,0-18.2-3.8-24.5-10.1c-3.3,15.8-17.3,27.7-34.1,27.7c-17.3,0-31.7-12.7-34.4-29.2c-2,1.1-4.3,1.6-6.8,1.6
			c-8.2,0-14.8-6.6-14.8-14.8c0-8.2,6.6-14.8,14.8-14.8c1.3,0,2.5,0.2,3.6,0.5c0-0.1,0-0.3,0-0.5c0-8.2,6.6-14.8,14.8-14.8
			c2.8,0,5.5,0.8,7.8,2.2c0.8-9.5,10.1-17,21.5-17c6.5,0,12.2,2.4,16.2,6.2c2-1,4.3-1.6,6.7-1.6c0.8,0,1.6,0.1,2.3,0.2
			c1.3-6.9,7.3-12.1,14.5-12.1c0.7,0,1.3,0,1.9,0.1c0.9-7.3,7.1-12.9,14.7-12.9c2.3,0,4.5,0.5,6.5,1.5c3.4-5.9,9.7-9.8,16.9-9.8
			c10.7,0,19.3,8.6,19.5,19.2C394,39.1,404.6,52.5,404.6,68.4z"/>
	</g>
	<g class="st1">
		<g>
			
				<image style="overflow:visible;" width="816" height="655" xlink:href="51051366.png"  transform="matrix(0.24 0 0 0.24 17.76 -25.7847)">
			</image>
		</g>
		<path class="st32" d="M177.2,59c-1.6,8.5-9.9,14.1-18.4,12.5c-0.8-0.1-1.5-0.4-2.3-0.6c0,0.1,0,0.1,0,0.2
			c-1.6,8.5-9.9,14.1-18.4,12.5c-0.1,0-0.2,0-0.2-0.1c-4.4,8.4-14,13.3-23.9,11.5c-8.4-1.6-14.7-7.7-17.1-15.3
			c-3.4,2.6-7.9,3.9-12.5,3C77,81.2,71.9,75,71.6,67.9c-0.1,0-0.3,0-0.4-0.1c-8.5-1.6-14.1-9.9-12.5-18.4c0.6-2.9,1.9-5.5,3.7-7.5
			c-6.1-4.2-9.6-10.9-8.3-17.6c1.9-9.7,12.8-15.7,24.5-13.4c5.4,1,10,3.6,13.2,7.1c3.1-2.9,7.4-4.3,11.9-3.5c3.3,0.6,6.1,2.4,8,4.9
			c4.6-3.1,10.9-4.4,17.4-3.1c1.4,0.3,2.7,0.6,3.9,1.1c2.6-3.3,6.9-5.1,11.4-4.2c6.4,1.2,10.5,7.4,9.3,13.7
			c-0.1,0.3-0.1,0.5-0.2,0.8c1.2-0.1,2.4,0,3.6,0.2c7.1,1.4,11.9,7.5,10.8,13.7C174.5,44.4,178.6,51.6,177.2,59z"/>
	</g>
	
		<image style="overflow:visible;" width="500" height="187" xlink:href="51051367.jpg"  transform="matrix(1 0 0 1 45.2384 -62.7068)">
	</image>
	<g class="st1">
		<g>
			
				<image style="overflow:visible;" width="1053" height="770" xlink:href="51051362.png"  transform="matrix(0.24 0 0 0.24 -28.08 -2.2647)">
			</image>
		</g>
		<path class="st32" d="M173.6,115.7c-0.2,0-0.3,0-0.5,0c1.1,1.7,1.7,3.6,1.7,5.7c0,6-5.1,10.9-11.3,10.9c-4.2,0-7.9-2.2-9.9-5.5
			c-0.7,5.4-5.4,9.6-11.3,9.6c-5.4,0-9.9-3.6-11-8.5c-2,1.8-4.7,2.9-7.7,2.9c-1,0-1.9-0.1-2.8-0.4c-1.1,4.9-5.7,8.5-11.1,8.5
			c-5.6,0-10.2-3.9-11.2-9c-1.8,3.8-5.7,6.4-10.3,6.4c-1,0-2-0.1-3-0.4c-1.5,5.9-7.1,10.3-13.7,10.3c-7.8,0-14.2-6.1-14.2-13.6
			c0-0.2,0-0.4,0-0.6c-0.6,0.1-1.2,0.2-1.8,0.2c-6.3,0-11.3-4.9-11.3-10.9c0-0.5,0-1,0.1-1.5c0,0-0.1,0-0.1,0
			c-10,0-18.2-7.8-18.2-17.5c0-0.7,0-1.3,0.1-2c0,0-0.1,0-0.1,0c-10,0-18.2-7.8-18.2-17.5c0-9.7,8.1-17.5,18.2-17.5
			c0.5,0,0.9,0,1.4,0.1c-0.2-1.1-0.4-2.3-0.4-3.4c0-9.7,8.1-17.5,18.2-17.5c2.2,0,4.3,0.4,6.3,1.1c0.6-6.8,6.6-12.1,13.9-12.1
			c7.7,0,14,5.9,14,13.2c6.4,0,11.8,3.5,14,8.4c2.4-1.9,5.5-3,8.9-3c7.7,0,14,5.9,14,13.2c0,1.7-0.4,3.3-1,4.8
			c0.6-0.1,1.2-0.1,1.9-0.1c6.4,0,11.7,4,13.4,9.6c3.7-2.8,9.2-4.5,15.3-4.5c11.2,0,20.4,5.9,20.4,13.2c0,0.9-0.2,1.9-0.5,2.8
			c2.3-1.3,5-2,7.9-2c8.3,0,15,5.9,15,13.2C188.6,109.8,181.9,115.7,173.6,115.7z"/>
	</g>
	<g class="st1">
		<g>
			
				<image style="overflow:visible;" width="1046" height="772" xlink:href="5105136D.png"  transform="matrix(0.24 0 0 0.24 196.8 -0.3447)">
			</image>
		</g>
		<path class="st32" d="M248.9,125.7c0.2,0,0.3,0,0.5-0.1c-1,1.7-1.4,3.8-1.3,5.9c0.4,6,5.9,10.5,12.1,10.1c4.2-0.3,7.7-2.8,9.4-6.2
			c1.1,5.4,6.1,9.2,11.9,8.8c5.4-0.4,9.6-4.4,10.4-9.3c2.2,1.7,4.9,2.6,7.9,2.3c1-0.1,1.9-0.3,2.8-0.6c1.5,4.8,6.3,8.1,11.7,7.7
			c5.6-0.4,9.9-4.6,10.5-9.8c2.1,3.6,6.2,6,10.8,5.6c1-0.1,2-0.3,3-0.6c2,5.8,7.8,9.8,14.4,9.3c7.8-0.6,13.7-7.1,13.1-14.6
			c0-0.2,0-0.4-0.1-0.6c0.6,0,1.2,0.1,1.8,0c6.2-0.5,10.9-5.7,10.5-11.7c0-0.5-0.1-1-0.2-1.4c0,0,0.1,0,0.1,0
			c10-0.7,17.5-9.2,16.8-18.8c0-0.7-0.1-1.3-0.3-2c0,0,0.1,0,0.1,0c10-0.7,17.5-9.2,16.8-18.8c-0.7-9.6-9.4-16.8-19.4-16.1
			c-0.5,0-0.9,0.1-1.4,0.2c0.1-1.1,0.2-2.3,0.1-3.4c-0.7-9.6-9.4-16.8-19.4-16.1c-2.2,0.2-4.3,0.7-6.2,1.5
			c-1.1-6.7-7.5-11.6-14.7-11c-7.7,0.6-13.5,6.9-12.9,14.2c-6.3,0.5-11.5,4.4-13.3,9.4c-2.5-1.7-5.7-2.6-9.1-2.4
			c-7.7,0.6-13.5,6.9-12.9,14.2c0.1,1.7,0.6,3.3,1.3,4.7c-0.6,0-1.3,0-1.9,0c-6.3,0.5-11.4,4.9-12.7,10.5c-3.9-2.5-9.5-3.8-15.6-3.4
			c-11.2,0.8-19.9,7.4-19.3,14.7c0.1,0.9,0.3,1.9,0.7,2.7c-2.4-1.1-5.1-1.6-8-1.4c-8.3,0.6-14.5,7-14,14.3
			C233.5,120.9,240.6,126.3,248.9,125.7z"/>
	</g>
	<g class="st1">
		<g>
			
				<image style="overflow:visible;" width="832" height="660" xlink:href="5105136E.png"  transform="matrix(0.24 0 0 0.24 97.44 32.9109)">
			</image>
		</g>
		<path class="st32" d="M133.6,107.9c0,8.7,7,15.7,15.7,15.7c0.8,0,1.6-0.1,2.3-0.2c0,0.1,0,0.1,0,0.2c0,8.7,7,15.7,15.7,15.7
			c0.1,0,0.2,0,0.2,0c2.8,9.1,11.3,15.8,21.3,15.8c8.5,0,15.9-4.8,19.6-11.8c2.9,3.2,7.1,5.3,11.7,5.3c7.4,0,13.6-5.2,15.3-12.1
			c0.1,0,0.3,0,0.4,0c8.7,0,15.7-7,15.7-15.7c0-3-0.8-5.7-2.2-8.1c6.8-3,11.5-8.9,11.5-15.8c0-9.8-9.6-17.8-21.5-17.8
			c-5.5,0-10.5,1.7-14.3,4.5c-2.5-3.4-6.5-5.7-11-5.7c-3.4,0-6.4,1.2-8.8,3.3c-3.9-3.9-9.9-6.3-16.5-6.3c-1.4,0-2.7,0.1-4,0.3
			c-2-3.7-5.9-6.3-10.4-6.3c-6.5,0-11.7,5.2-11.7,11.7c0,0.3,0,0.6,0,0.8c-1.2-0.3-2.4-0.5-3.6-0.5c-7.2,0-13,5.1-13.2,11.5
			C138.9,94,133.6,100.3,133.6,107.9z"/>
	</g>
</g>
</svg>
