<?xml version="1.0" encoding="utf-8"?>
<!-- Generator: Adobe Illustrator 24.0.1, SVG Export Plug-In . SVG Version: 6.00 Build 0)  -->
<svg version="1.1" xmlns="http://www.w3.org/2000/svg" xmlns:xlink="http://www.w3.org/1999/xlink" x="0px" y="0px"
	 viewBox="0 0 418.6 163.2" style="enable-background:new 0 0 418.6 163.2;" xml:space="preserve">
<style type="text/css">
	.st0{fill:#EE9B00;}
	.st1{display:none;}
	.st2{display:inline;}
	.st3{fill:#FFFFFF;}
</style>
<g id="Layer_1">
</g>
<g id="Layer_3">
	<g>
		
			<image style="overflow:visible;" width="326" height="327" xlink:href="28402E2B.png"  transform="matrix(0.24 0 0 0.24 359.76 -21.4647)">
		</image>
	</g>
	<g>
		
			<image style="overflow:visible;" width="360" height="361" xlink:href="28402E29.png"  transform="matrix(0.24 0 0 0.24 304.32 -19.7847)">
		</image>
	</g>
	<g>
		
			<image style="overflow:visible;" width="338" height="339" xlink:href="28402E2F.png"  transform="matrix(0.24 0 0 0.24 328.08 48.6153)">
		</image>
	</g>
	<g>
		
			<image style="overflow:visible;" width="332" height="333" xlink:href="28402E28.png"  transform="matrix(0.24 0 0 0.24 339.36 13.8153)">
		</image>
	</g>
	<g>
		
			<image style="overflow:visible;" width="364" height="365" xlink:href="28402E26.png"  transform="matrix(0.24 0 0 0.24 339.36 94.9353)">
		</image>
	</g>
	<g>
		
			<image style="overflow:visible;" width="340" height="341" xlink:href="28402E27.png"  transform="matrix(0.24 0 0 0.24 277.44 29.6553)">
		</image>
	</g>
	<g>
		
			<image style="overflow:visible;" width="338" height="339" xlink:href="28402E37.png"  transform="matrix(0.24 0 0 0.24 129.84 -8.0247)">
		</image>
	</g>
	<g>
		
			<image style="overflow:visible;" width="340" height="341" xlink:href="28402E39.png"  transform="matrix(0.24 0 0 0.24 62.4 24.8553)">
		</image>
	</g>
	<g>
		
			<image style="overflow:visible;" width="322" height="323" xlink:href="28402E3B.png"  transform="matrix(0.24 0 0 0.24 202.32 -17.8647)">
		</image>
	</g>
	<g>
		
			<image style="overflow:visible;" width="322" height="323" xlink:href="D146AC48.png"  transform="matrix(0.24 0 0 0.24 36.72 66.3753)">
		</image>
	</g>
	<g>
		
			<image style="overflow:visible;" width="354" height="355" xlink:href="D146AC4F.png"  transform="matrix(0.24 0 0 0.24 155.28 62.5353)">
		</image>
	</g>
	<g>
		
			<image style="overflow:visible;" width="332" height="333" xlink:href="D146AC49.png"  transform="matrix(0.24 0 0 0.24 180 21.0153)">
		</image>
	</g>
	<g>
		
			<image style="overflow:visible;" width="314" height="315" xlink:href="D146AC4B.png"  transform="matrix(0.24 0 0 0.24 210.96 43.8153)">
		</image>
	</g>
	<g>
		
			<image style="overflow:visible;" width="314" height="315" xlink:href="D146AC56.png"  transform="matrix(0.24 0 0 0.24 281.52 69.9753)">
		</image>
	</g>
	<g>
		
			<image style="overflow:visible;" width="314" height="315" xlink:href="D146AC57.png"  transform="matrix(0.24 0 0 0.24 309.84 19.3353)">
		</image>
	</g>
	<g>
		
			<image style="overflow:visible;" width="314" height="315" xlink:href="D146AC58.png"  transform="matrix(0.24 0 0 0.24 358.08 34.4553)">
		</image>
	</g>
	<g>
		
			<image style="overflow:visible;" width="314" height="315" xlink:href="D146AC5B.png"  transform="matrix(0.24 0 0 0.24 364.32 69.9753)">
		</image>
	</g>
	<g>
		
			<image style="overflow:visible;" width="314" height="315" xlink:href="D146AC59.png"  transform="matrix(0.24 0 0 0.24 293.04 108.3753)">
		</image>
	</g>
	<g>
		
			<image style="overflow:visible;" width="314" height="315" xlink:href="D146AC5F.png"  transform="matrix(0.24 0 0 0.24 260.4 -0.5847)">
		</image>
	</g>
	<g>
		
			<image style="overflow:visible;" width="328" height="329" xlink:href="D146AC73.png"  transform="matrix(0.24 0 0 0.24 244.32 88.2153)">
		</image>
	</g>
	<g>
		
			<image style="overflow:visible;" width="336" height="337" xlink:href="D146AC7D.png"  transform="matrix(0.24 0 0 0.24 -13.92 93.9753)">
		</image>
	</g>
	<g>
		
			<image style="overflow:visible;" width="320" height="321" xlink:href="D146AC7F.png"  transform="matrix(0.24 0 0 0.24 -3.84 50.7753)">
		</image>
	</g>
	<g>
		
			<image style="overflow:visible;" width="310" height="311" xlink:href="D146AC72.png"  transform="matrix(0.24 0 0 0.24 68.88 84.6153)">
		</image>
	</g>
	<g>
		
			<image style="overflow:visible;" width="318" height="319" xlink:href="D146AC71.png"  transform="matrix(0.24 0 0 0.24 84.72 57.7353)">
		</image>
	</g>
	<g>
		
			<image style="overflow:visible;" width="318" height="319" xlink:href="D146AC75.png"  transform="matrix(0.24 0 0 0.24 220.08 110.0553)">
		</image>
	</g>
	<g>
		
			<image style="overflow:visible;" width="318" height="319" xlink:href="D146AC77.png"  transform="matrix(0.24 0 0 0.24 200.16 84.8553)">
		</image>
	</g>
	<g>
		
			<image style="overflow:visible;" width="316" height="316" xlink:href="D146AC70.png"  transform="matrix(0.24 0 0 0.24 16.32 -0.8247)">
		</image>
	</g>
	<g>
		
			<image style="overflow:visible;" width="316" height="317" xlink:href="D146AC4E.png"  transform="matrix(0.24 0 0 0.24 73.92 -7.3047)">
		</image>
	</g>
	<g>
		
			<image style="overflow:visible;" width="314" height="315" xlink:href="D146AC6D.png"  transform="matrix(0.24 0 0 0.24 119.28 27.0153)">
		</image>
	</g>
	<g>
		
			<image style="overflow:visible;" width="318" height="319" xlink:href="D146AC92.png"  transform="matrix(0.24 0 0 0.24 132.24 104.2953)">
		</image>
	</g>
	<g>
		
			<image style="overflow:visible;" width="318" height="319" xlink:href="D146ACAD.png"  transform="matrix(0.24 0 0 0.24 242.16 48.6153)">
		</image>
	</g>
	<g>
		
			<image style="overflow:visible;" width="316" height="317" xlink:href="D146ACAE.png"  transform="matrix(0.24 0 0 0.24 35.52 108.3753)">
		</image>
	</g>
	<circle class="st0" cx="398.9" cy="17.7" r="3.1"/>
	<circle class="st0" cx="347.5" cy="23.5" r="7.2"/>
	<circle class="st0" cx="368.6" cy="89.3" r="4.6"/>
	<circle class="st0" cx="379.2" cy="53.7" r="3.8"/>
	<circle class="st0" cx="383" cy="138.7" r="7.7"/>
	<circle class="st0" cx="318.2" cy="70.5" r="4.8"/>
	<circle class="st0" cx="170.4" cy="32.6" r="4.6"/>
	<circle class="st0" cx="103.2" cy="65.7" r="4.8"/>
	<circle class="st0" cx="241" cy="20.9" r="2.6"/>
	<circle class="st0" cx="75.4" cy="105.1" r="2.6"/>
	<circle class="st0" cx="197.8" cy="105.1" r="6.5"/>
	<circle class="st0" cx="219.8" cy="60.9" r="3.8"/>
	<circle class="st0" cx="248.6" cy="81.6" r="1.7"/>
	<circle class="st0" cx="319.2" cy="107.7" r="1.7"/>
	<circle class="st0" cx="347.5" cy="57.1" r="1.7"/>
	<circle class="st0" cx="395.8" cy="72.2" r="1.7"/>
	<circle class="st0" cx="402" cy="107.7" r="1.7"/>
	<circle class="st0" cx="330.7" cy="146.1" r="1.7"/>
	<circle class="st0" cx="298.1" cy="37.2" r="1.7"/>
	<circle class="st0" cx="283.7" cy="127.7" r="3.4"/>
	<circle class="st0" cx="26.4" cy="134.4" r="4.3"/>
	<circle class="st0" cx="34.6" cy="89.3" r="2.4"/>
	<circle class="st0" cx="106.1" cy="121.9" r="1.2"/>
	<circle class="st0" cx="122.9" cy="96" r="2.2"/>
	<circle class="st0" cx="258.2" cy="148.3" r="2.2"/>
	<circle class="st0" cx="238.3" cy="123.1" r="2.2"/>
	<circle class="st0" cx="54.2" cy="37.2" r="1.8"/>
	<circle class="st0" cx="111.8" cy="30.7" r="1.9"/>
	<circle class="st0" cx="157" cy="64.8" r="1.7"/>
	<circle class="st0" cx="170.4" cy="142.5" r="2.2"/>
	<circle class="st0" cx="280.3" cy="86.9" r="2.2"/>
	<circle class="st0" cx="73.4" cy="146.4" r="1.9"/>
</g>
<g id="Layer_2" class="st1">
	<g class="st2">
		<g>
			
				<image style="overflow:visible;" width="832" height="660" xlink:href="D146ACAC.png"  transform="matrix(0.24 0 0 0.24 116.16 -16.9047)">
			</image>
		</g>
		<path class="st3" d="M152.4,66.4c0-8.7,7-15.7,15.7-15.7c0.8,0,1.6,0.1,2.3,0.2c0-0.1,0-0.1,0-0.2c0-8.7,7-15.7,15.7-15.7
			c0.1,0,0.2,0,0.2,0c2.8-9.1,11.3-15.8,21.3-15.8c8.5,0,15.9,4.8,19.6,11.8c2.9-3.2,7.1-5.3,11.7-5.3c7.4,0,13.6,5.2,15.3,12.1
			c0.1,0,0.3,0,0.4,0c8.7,0,15.7,7,15.7,15.7c0,3-0.8,5.7-2.2,8.1c6.8,3,11.5,8.9,11.5,15.8c0,9.8-9.6,17.8-21.5,17.8
			c-5.5,0-10.5-1.7-14.3-4.5c-2.5,3.4-6.5,5.7-11,5.7c-3.4,0-6.4-1.2-8.8-3.3c-3.9,3.9-9.9,6.3-16.5,6.3c-1.4,0-2.7-0.1-4-0.3
			c-2,3.7-5.9,6.3-10.4,6.3c-6.5,0-11.7-5.2-11.7-11.7c0-0.3,0-0.6,0-0.8c-1.2,0.3-2.4,0.5-3.6,0.5c-7.2,0-13-5.1-13.2-11.5
			C157.7,80.2,152.4,73.9,152.4,66.4z"/>
	</g>
	<g class="st2">
		<g>
			
				<image style="overflow:visible;" width="1079" height="781" xlink:href="D146ACB2.png"  transform="matrix(0.24 0 0 0.24 181.68 -20.5047)">
			</image>
		</g>
		<path class="st3" d="M404.6,68.4c0,19.3-15.6,34.9-34.9,34.9c-3.9,0-7.7-0.6-11.2-1.8c-6.4,7.2-15.7,11.7-26.1,11.7
			c-9.5,0-18.2-3.8-24.5-10.1c-3.3,15.8-17.3,27.7-34.1,27.7c-17.3,0-31.7-12.7-34.4-29.2c-2,1.1-4.3,1.6-6.8,1.6
			c-8.2,0-14.8-6.6-14.8-14.8c0-8.2,6.6-14.8,14.8-14.8c1.3,0,2.5,0.2,3.6,0.5c0-0.1,0-0.3,0-0.5c0-8.2,6.6-14.8,14.8-14.8
			c2.8,0,5.5,0.8,7.8,2.2c0.8-9.5,10.1-17,21.5-17c6.5,0,12.2,2.4,16.2,6.2c2-1,4.3-1.6,6.7-1.6c0.8,0,1.6,0.1,2.3,0.2
			c1.3-6.9,7.3-12.1,14.5-12.1c0.7,0,1.3,0,1.9,0.1c0.9-7.3,7.1-12.9,14.7-12.9c2.3,0,4.5,0.5,6.5,1.5c3.4-5.9,9.7-9.8,16.9-9.8
			c10.7,0,19.3,8.6,19.5,19.2C394,39.1,404.6,52.5,404.6,68.4z"/>
	</g>
	<g class="st2">
		<g>
			
				<image style="overflow:visible;" width="816" height="655" xlink:href="D146ACB5.png"  transform="matrix(0.24 0 0 0.24 17.76 -25.7847)">
			</image>
		</g>
		<path class="st3" d="M177.2,59c-1.6,8.5-9.9,14.1-18.4,12.5c-0.8-0.1-1.5-0.4-2.3-0.6c0,0.1,0,0.1,0,0.2
			c-1.6,8.5-9.9,14.1-18.4,12.5c-0.1,0-0.2,0-0.2-0.1c-4.4,8.4-14,13.3-23.9,11.5c-8.4-1.6-14.7-7.7-17.1-15.3
			c-3.4,2.6-7.9,3.9-12.5,3C77,81.2,71.9,75,71.6,67.9c-0.1,0-0.3,0-0.4-0.1c-8.5-1.6-14.1-9.9-12.5-18.4c0.6-2.9,1.9-5.5,3.7-7.5
			c-6.1-4.2-9.6-10.9-8.3-17.6c1.9-9.7,12.8-15.7,24.5-13.4c5.4,1,10,3.6,13.2,7.1c3.1-2.9,7.4-4.3,11.9-3.5c3.3,0.6,6.1,2.4,8,4.9
			c4.6-3.1,10.9-4.4,17.4-3.1c1.4,0.3,2.7,0.6,3.9,1.1c2.6-3.3,6.9-5.1,11.4-4.2c6.4,1.2,10.5,7.4,9.3,13.7
			c-0.1,0.3-0.1,0.5-0.2,0.8c1.2-0.1,2.4,0,3.6,0.2c7.1,1.4,11.9,7.5,10.8,13.7C174.5,44.4,178.6,51.6,177.2,59z"/>
	</g>
	
		<image style="overflow:visible;" width="500" height="187" xlink:href="D146ACB6.jpg"  transform="matrix(1 0 0 1 45.2384 -62.7068)">
	</image>
	<g class="st2">
		<g>
			
				<image style="overflow:visible;" width="1053" height="770" xlink:href="D146ACB6.png"  transform="matrix(0.24 0 0 0.24 -28.08 -2.2647)">
			</image>
		</g>
		<path class="st3" d="M173.6,115.7c-0.2,0-0.3,0-0.5,0c1.1,1.7,1.7,3.6,1.7,5.7c0,6-5.1,10.9-11.3,10.9c-4.2,0-7.9-2.2-9.9-5.5
			c-0.7,5.4-5.4,9.6-11.3,9.6c-5.4,0-9.9-3.6-11-8.5c-2,1.8-4.7,2.9-7.7,2.9c-1,0-1.9-0.1-2.8-0.4c-1.1,4.9-5.7,8.5-11.1,8.5
			c-5.6,0-10.2-3.9-11.2-9c-1.8,3.8-5.7,6.4-10.3,6.4c-1,0-2-0.1-3-0.4c-1.5,5.9-7.1,10.3-13.7,10.3c-7.8,0-14.2-6.1-14.2-13.6
			c0-0.2,0-0.4,0-0.6c-0.6,0.1-1.2,0.2-1.8,0.2c-6.3,0-11.3-4.9-11.3-10.9c0-0.5,0-1,0.1-1.5c0,0-0.1,0-0.1,0
			c-10,0-18.2-7.8-18.2-17.5c0-0.7,0-1.3,0.1-2c0,0-0.1,0-0.1,0c-10,0-18.2-7.8-18.2-17.5c0-9.7,8.1-17.5,18.2-17.5
			c0.5,0,0.9,0,1.4,0.1c-0.2-1.1-0.4-2.3-0.4-3.4c0-9.7,8.1-17.5,18.2-17.5c2.2,0,4.3,0.4,6.3,1.1c0.6-6.8,6.6-12.1,13.9-12.1
			c7.7,0,14,5.9,14,13.2c6.4,0,11.8,3.5,14,8.4c2.4-1.9,5.5-3,8.9-3c7.7,0,14,5.9,14,13.2c0,1.7-0.4,3.3-1,4.8
			c0.6-0.1,1.2-0.1,1.9-0.1c6.4,0,11.7,4,13.4,9.6c3.7-2.8,9.2-4.5,15.3-4.5c11.2,0,20.4,5.9,20.4,13.2c0,0.9-0.2,1.9-0.5,2.8
			c2.3-1.3,5-2,7.9-2c8.3,0,15,5.9,15,13.2C188.6,109.8,181.9,115.7,173.6,115.7z"/>
	</g>
	<g class="st2">
		<g>
			
				<image style="overflow:visible;" width="1046" height="772" xlink:href="D146ACB3.png"  transform="matrix(0.24 0 0 0.24 196.8 -0.3447)">
			</image>
		</g>
		<path class="st3" d="M248.9,125.7c0.2,0,0.3,0,0.5-0.1c-1,1.7-1.4,3.8-1.3,5.9c0.4,6,5.9,10.5,12.1,10.1c4.2-0.3,7.7-2.8,9.4-6.2
			c1.1,5.4,6.1,9.2,11.9,8.8c5.4-0.4,9.6-4.4,10.4-9.3c2.2,1.7,4.9,2.6,7.9,2.3c1-0.1,1.9-0.3,2.8-0.6c1.5,4.8,6.3,8.1,11.7,7.7
			c5.6-0.4,9.9-4.6,10.5-9.8c2.1,3.6,6.2,6,10.8,5.6c1-0.1,2-0.3,3-0.6c2,5.8,7.8,9.8,14.4,9.3c7.8-0.6,13.7-7.1,13.1-14.6
			c0-0.2,0-0.4-0.1-0.6c0.6,0,1.2,0.1,1.8,0c6.2-0.5,10.9-5.7,10.5-11.7c0-0.5-0.1-1-0.2-1.4c0,0,0.1,0,0.1,0
			c10-0.7,17.5-9.2,16.8-18.8c0-0.7-0.1-1.3-0.3-2c0,0,0.1,0,0.1,0c10-0.7,17.5-9.2,16.8-18.8c-0.7-9.6-9.4-16.8-19.4-16.1
			c-0.5,0-0.9,0.1-1.4,0.2c0.1-1.1,0.2-2.3,0.1-3.4c-0.7-9.6-9.4-16.8-19.4-16.1c-2.2,0.2-4.3,0.7-6.2,1.5
			c-1.1-6.7-7.5-11.6-14.7-11c-7.7,0.6-13.5,6.9-12.9,14.2c-6.3,0.5-11.5,4.4-13.3,9.4c-2.5-1.7-5.7-2.6-9.1-2.4
			c-7.7,0.6-13.5,6.9-12.9,14.2c0.1,1.7,0.6,3.3,1.3,4.7c-0.6,0-1.3,0-1.9,0c-6.3,0.5-11.4,4.9-12.7,10.5c-3.9-2.5-9.5-3.8-15.6-3.4
			c-11.2,0.8-19.9,7.4-19.3,14.7c0.1,0.9,0.3,1.9,0.7,2.7c-2.4-1.1-5.1-1.6-8-1.4c-8.3,0.6-14.5,7-14,14.3
			C233.5,120.9,240.6,126.3,248.9,125.7z"/>
	</g>
	<g class="st2">
		<g>
			
				<image style="overflow:visible;" width="832" height="660" xlink:href="D146ACBD.png"  transform="matrix(0.24 0 0 0.24 97.44 32.9109)">
			</image>
		</g>
		<path class="st3" d="M133.6,107.9c0,8.7,7,15.7,15.7,15.7c0.8,0,1.6-0.1,2.3-0.2c0,0.1,0,0.1,0,0.2c0,8.7,7,15.7,15.7,15.7
			c0.1,0,0.2,0,0.2,0c2.8,9.1,11.3,15.8,21.3,15.8c8.5,0,15.9-4.8,19.6-11.8c2.9,3.2,7.1,5.3,11.7,5.3c7.4,0,13.6-5.2,15.3-12.1
			c0.1,0,0.3,0,0.4,0c8.7,0,15.7-7,15.7-15.7c0-3-0.8-5.7-2.2-8.1c6.8-3,11.5-8.9,11.5-15.8c0-9.8-9.6-17.8-21.5-17.8
			c-5.5,0-10.5,1.7-14.3,4.5c-2.5-3.4-6.5-5.7-11-5.7c-3.4,0-6.4,1.2-8.8,3.3c-3.9-3.9-9.9-6.3-16.5-6.3c-1.4,0-2.7,0.1-4,0.3
			c-2-3.7-5.9-6.3-10.4-6.3c-6.5,0-11.7,5.2-11.7,11.7c0,0.3,0,0.6,0,0.8c-1.2-0.3-2.4-0.5-3.6-0.5c-7.2,0-13,5.1-13.2,11.5
			C138.9,94,133.6,100.3,133.6,107.9z"/>
	</g>
</g>
</svg>
